<?xml version="1.0" encoding="UTF-8"?>
<svg id="Layer_1" data-name="Layer 1" xmlns="http://www.w3.org/2000/svg" viewBox="0 0 420 99.44">
  <defs>
    <style>
      .cls-1, .cls-2 {
        fill: #fdfdfd;
      }

      .cls-1, .cls-3 {
        fill-rule: evenodd;
      }

      .cls-4, .cls-3 {
        fill: #02b7ff;
      }
    </style>
  </defs>
  <path class="cls-3" d="M91.56,30.66c-.31.87-.18,1.76.35,2.52.54.76,1.34,1.18,2.27,1.18h8.33l-7.86-12.27-3.09,8.58ZM72.09,77.36h14.95l14.63-40.65h-7.48c-1.7,0-3.21-.79-4.19-2.18-.97-1.38-1.21-3.07-.64-4.66l2.8-7.78h-20.07v10.05h5.25c1.38,0,2.51,1.13,2.51,2.51s-1.13,2.51-2.51,2.51h-5.25v5.02h17.3c1.38,0,2.51,1.13,2.51,2.51s-1.13,2.51-2.51,2.51h-17.3v5.02h13.55c1.38,0,2.51,1.13,2.51,2.51s-1.13,2.51-2.51,2.51h-13.55v5.02h9.93c1.38,0,2.51,1.13,2.51,2.51s-1.13,2.51-2.51,2.51h-9.93v10.05Z"/>
  <path class="cls-1" d="M19.17,72.33h46.77v5.02H19.17c-1.38,0-2.51-1.13-2.51-2.51s1.13-2.51,2.51-2.51"/>
  <path class="cls-1" d="M34.96,62.28h7.35c1.38,0,2.51,1.13,2.51,2.51s-1.13,2.51-2.51,2.51h-7.35c-1.38,0-2.51-1.13-2.51-2.51s1.13-2.51,2.51-2.51"/>
  <path class="cls-1" d="M28.89,62.28h-2.48c-1.38,0-2.51,1.13-2.51,2.51s1.13,2.51,2.51,2.51h2.48c1.38,0,2.51-1.13,2.51-2.51s-1.13-2.51-2.51-2.51"/>
  <path class="cls-1" d="M34.81,52.23h10.97c1.38,0,2.51,1.13,2.51,2.51s-1.13,2.51-2.51,2.51h-10.97c-1.38,0-2.51-1.13-2.51-2.51s1.13-2.51,2.51-2.51"/>
  <path class="cls-1" d="M46.3,42.18h3.18c1.38,0,2.51,1.13,2.51,2.51s-1.13,2.51-2.51,2.51h-3.18c-1.38,0-2.51-1.13-2.51-2.51s1.13-2.51,2.51-2.51"/>
  <path class="cls-1" d="M38.66,42.18h-13.82c-1.38,0-2.51,1.13-2.51,2.51s1.13,2.51,2.51,2.51h13.82c1.38,0,2.51-1.13,2.51-2.51s-1.13-2.51-2.51-2.51"/>
  <path class="cls-1" d="M39.73,32.13h13.23c1.38,0,2.51,1.13,2.51,2.51s-1.13,2.51-2.51,2.51h-13.23c-1.38,0-2.51-1.13-2.51-2.51s1.13-2.51,2.51-2.51"/>
  <path class="cls-1" d="M30.84,22.09h5.85c1.38,0,2.51,1.13,2.51,2.51s-1.13,2.51-2.51,2.51h-5.85c-1.38,0-2.51-1.13-2.51-2.51s1.13-2.51,2.51-2.51"/>
  <path class="cls-1" d="M44.21,22.09h22.78v5.02h-22.78c-1.38,0-2.51-1.13-2.51-2.51s1.13-2.51,2.51-2.51"/>
  <path class="cls-1" d="M67.23,11.7h0c1.38,0,2.51,1.13,2.51,2.51v71.02c0,1.38-1.13,2.51-2.51,2.51s-2.51-1.13-2.51-2.51V14.21c0-1.38,1.13-2.51,2.51-2.51"/>
  <path class="cls-2" d="M123.77,34.19h14.55c6.58,0,11.2,3.53,11.2,9.73,0,7.67-5.76,11.32-14.5,11.32h-8.57l-2.24,11.2h-7.29l6.83-32.25ZM127.73,49.4h7.13c4.45,0,7.19-1.42,7.19-5.14,0-2.69-1.7-4.27-5.64-4.27h-6.67l-2.01,9.41Z"/>
  <path class="cls-2" d="M157.24,34.19h13.14c9.38,0,14.43,6.42,14.43,14.13,0,10.71-6.95,18.12-19.74,18.12h-14.67l6.83-32.25ZM159.04,60.4h6.81c7.77,0,11.03-5.71,11.03-11.74,0-5.5-2.98-8.46-8.33-8.46h-5.23l-4.29,20.2Z"/>
  <path class="cls-2" d="M194.06,34.19h25.25l-1.32,6h-17.96l-1.56,7.5h16.74l-1.31,6.04h-16.75l-2.65,12.7h-7.29l6.83-32.25Z"/>
  <path class="cls-2" d="M244.59,52.71h-17.16l-1.59,7.7h19.68l-2.13,6.04h-26.03l6.83-32.25h25.29l-1.31,6.04h-18.09l-1.31,6.42h17.16l-1.35,6.04Z"/>
  <path class="cls-2" d="M279.86,32.35l-5.83,27.54c-.46,2.2-.88,4.36-1.29,6.56h-6.92c.05-.57.16-1.54.32-2.39-1.46,1.69-3.36,3.03-7.67,3.03-5.92,0-9.5-4.37-9.5-10.54,0-7.66,5.47-14.4,13.64-14.4,4.72,0,6.83,1.86,7.41,3.05l2.7-12.84h7.14ZM256.4,55.92c0,3.29,1.71,5.42,4.84,5.42,4.1,0,6.25-2.63,6.98-6.33.9-4.64-.57-7.16-4.92-7.16s-6.89,3.77-6.89,8.06Z"/>
  <path class="cls-2" d="M283.53,42.78h7.1l-5.02,23.66h-7.1l5.02-23.66ZM285.68,32.35h7.14l-1.25,5.98h-7.14l1.25-5.98Z"/>
  <path class="cls-2" d="M293.78,42.78h4.1l1.57-7.1h7.14l-1.57,7.1h5.24l-1.11,5.22h-5.24l-2.18,10.27c-.44,2.01-.33,2.98,1.88,2.98.71,0,1.9-.06,2.55-.2l-1.06,5.05c-1.28.37-2.96.54-4.64.54-5.6,0-7.1-2.57-6.15-7.14l2.46-11.49h-4.1l1.11-5.22Z"/>
  <path class="cls-4" d="M309.99,66.45l1.89-8.78h7.88l-1.89,8.78h-7.88Z"/>
  <path class="cls-4" d="M323.17,66.45l7.21-34.09h7.1l-7.21,34.09h-7.1Z"/>
  <path class="cls-4" d="M341.18,42.78h7.1l-5.02,23.66h-7.1l5.02-23.66ZM343.33,32.35h7.14l-1.25,5.98h-7.14l1.25-5.98Z"/>
  <path class="cls-4" d="M358.64,42.78c1.49,9.12,2.34,14.73,2.65,17.2h.09c1.46-3.22,3.82-7.45,9.53-17.2h7.67l-14.72,23.66h-7.74l-4.63-23.66h7.15Z"/>
  <path class="cls-4" d="M384.76,56.27c0,.12-.01.49-.01.66,0,2.64,1.42,4.73,4.81,4.73,2.72,0,3.9-.84,4.86-2.24h7.4c-1.59,4.03-5.43,7.66-12.82,7.66-7.86,0-11.27-4.89-11.27-10.78,0-6.51,4.49-14.16,14.45-14.16,7.81,0,11.18,4.56,11.18,10.09,0,1.41-.13,2.52-.6,4.03h-17.98ZM396.51,51.77c0-.09,0-.3,0-.48,0-2.48-1.55-4.08-4.72-4.08-3.36,0-5.28,1.93-5.99,4.56h10.71Z"/>
</svg>