<?xml version="1.0" encoding="UTF-8"?>
<svg id="Layer_1" data-name="Layer 1" xmlns="http://www.w3.org/2000/svg" viewBox="0 0 339 339">
  <defs>
    <style>
      .cls-1, .cls-2 {
        fill: #1a2237;
      }

      .cls-1, .cls-3 {
        fill-rule: evenodd;
      }

      .cls-4, .cls-3 {
        fill: #02b7ff;
      }
    </style>
  </defs>
  <path class="cls-3" d="M217.86,128.24c-.46,1.32-.28,2.66.53,3.81.81,1.15,2.02,1.78,3.43,1.78h12.59l-11.88-18.56-4.67,12.97ZM188.41,198.86h22.61l22.12-61.48h-11.32c-2.56,0-4.86-1.19-6.33-3.29-1.46-2.08-1.82-4.65-.96-7.04l4.24-11.77h-30.35v15.2h7.94c2.09,0,3.8,1.71,3.8,3.8s-1.71,3.8-3.8,3.8h-7.94v7.6h26.17c2.09,0,3.8,1.71,3.8,3.8s-1.71,3.8-3.8,3.8h-26.17v7.6h20.49c2.09,0,3.8,1.71,3.8,3.8s-1.71,3.8-3.8,3.8h-20.49v7.6h15.02c2.09,0,3.8,1.71,3.8,3.8s-1.71,3.8-3.8,3.8h-15.02v15.2Z"/>
  <path class="cls-1" d="M108.38,191.26h70.74v7.6h-70.74c-2.09,0-3.8-1.71-3.8-3.8s1.71-3.8,3.8-3.8"/>
  <path class="cls-1" d="M132.26,176.06h11.12c2.09,0,3.8,1.71,3.8,3.8s-1.71,3.8-3.8,3.8h-11.12c-2.09,0-3.8-1.71-3.8-3.8s1.71-3.8,3.8-3.8"/>
  <path class="cls-1" d="M123.08,176.06h-3.75c-2.09,0-3.8,1.71-3.8,3.8s1.71,3.8,3.8,3.8h3.75c2.09,0,3.8-1.71,3.8-3.8s-1.71-3.8-3.8-3.8"/>
  <path class="cls-1" d="M132.04,160.86h16.59c2.09,0,3.8,1.71,3.8,3.8s-1.71,3.8-3.8,3.8h-16.59c-2.09,0-3.8-1.71-3.8-3.8s1.71-3.8,3.8-3.8"/>
  <path class="cls-1" d="M149.41,145.66h4.81c2.09,0,3.8,1.71,3.8,3.8s-1.71,3.8-3.8,3.8h-4.81c-2.09,0-3.8-1.71-3.8-3.8s1.71-3.8,3.8-3.8"/>
  <path class="cls-1" d="M137.86,145.66h-20.9c-2.09,0-3.8,1.71-3.8,3.8s1.71,3.8,3.8,3.8h20.9c2.09,0,3.8-1.71,3.8-3.8s-1.71-3.8-3.8-3.8"/>
  <path class="cls-1" d="M139.48,130.47h20.01c2.09,0,3.8,1.71,3.8,3.8s-1.71,3.8-3.8,3.8h-20.01c-2.09,0-3.8-1.71-3.8-3.8s1.71-3.8,3.8-3.8"/>
  <path class="cls-1" d="M126.03,115.27h8.84c2.09,0,3.8,1.71,3.8,3.8s-1.71,3.8-3.8,3.8h-8.84c-2.09,0-3.8-1.71-3.8-3.8s1.71-3.8,3.8-3.8"/>
  <path class="cls-1" d="M146.25,115.27h34.46v7.6h-34.46c-2.09,0-3.8-1.71-3.8-3.8s1.71-3.8,3.8-3.8"/>
  <path class="cls-1" d="M181.07,99.56h0c2.09,0,3.8,1.71,3.8,3.8v107.4c0,2.09-1.71,3.8-3.8,3.8s-3.8-1.71-3.8-3.8v-107.4c0-2.09,1.71-3.8,3.8-3.8"/>
  <path class="cls-2" d="M101.8,225.02h7.22c3.27,0,5.56,1.75,5.56,4.83,0,3.81-2.86,5.62-7.2,5.62h-4.25l-1.11,5.56h-3.62l3.39-16.01ZM103.76,232.57h3.54c2.21,0,3.57-.71,3.57-2.55,0-1.34-.84-2.12-2.8-2.12h-3.31l-1,4.67Z"/>
  <path class="cls-2" d="M118.41,225.02h6.52c4.66,0,7.16,3.19,7.16,7.01,0,5.32-3.45,9-9.8,9h-7.28l3.39-16.01ZM119.31,238.03h3.38c3.86,0,5.48-2.84,5.48-5.83,0-2.73-1.48-4.2-4.13-4.2h-2.6l-2.13,10.03Z"/>
  <path class="cls-2" d="M136.69,225.02h12.53l-.65,2.98h-8.91l-.78,3.72h8.31l-.65,3h-8.31l-1.31,6.31h-3.62l3.39-16.01Z"/>
  <path class="cls-2" d="M161.77,234.21h-8.52l-.79,3.82h9.77l-1.05,3h-12.92l3.39-16.01h12.56l-.65,3h-8.98l-.65,3.19h8.52l-.67,3Z"/>
  <path class="cls-2" d="M179.28,224.11l-2.9,13.67c-.23,1.09-.44,2.16-.64,3.26h-3.44c.03-.28.08-.76.16-1.19-.72.84-1.67,1.5-3.81,1.5-2.94,0-4.71-2.17-4.71-5.23,0-3.8,2.72-7.15,6.77-7.15,2.34,0,3.39.93,3.68,1.51l1.34-6.37h3.54ZM167.64,235.81c0,1.63.85,2.69,2.4,2.69,2.03,0,3.1-1.31,3.46-3.14.45-2.3-.28-3.55-2.44-3.55s-3.42,1.87-3.42,4Z"/>
  <path class="cls-2" d="M181.1,229.29h3.53l-2.49,11.75h-3.53l2.49-11.75ZM182.17,224.11h3.55l-.62,2.97h-3.55l.62-2.97Z"/>
  <path class="cls-2" d="M186.19,229.29h2.04l.78-3.53h3.55l-.78,3.53h2.6l-.55,2.59h-2.6l-1.08,5.1c-.22,1-.17,1.48.93,1.48.35,0,.94-.03,1.27-.1l-.53,2.51c-.64.18-1.47.27-2.31.27-2.78,0-3.53-1.28-3.05-3.55l1.22-5.7h-2.04l.55-2.59Z"/>
  <path class="cls-4" d="M194.24,241.03l.94-4.36h3.91l-.94,4.36h-3.91Z"/>
  <path class="cls-4" d="M200.78,241.03l3.58-16.92h3.53l-3.58,16.92h-3.53Z"/>
  <path class="cls-4" d="M209.72,229.29h3.53l-2.49,11.75h-3.53l2.49-11.75ZM210.79,224.11h3.55l-.62,2.97h-3.55l.62-2.97Z"/>
  <path class="cls-4" d="M218.39,229.29c.74,4.53,1.16,7.31,1.31,8.54h.04c.72-1.6,1.9-3.7,4.73-8.54h3.81l-7.31,11.75h-3.84l-2.3-11.75h3.55Z"/>
  <path class="cls-4" d="M231.35,235.98c0,.06,0,.24,0,.33,0,1.31.7,2.35,2.39,2.35,1.35,0,1.93-.42,2.41-1.11h3.67c-.79,2-2.7,3.8-6.36,3.8-3.9,0-5.6-2.43-5.6-5.35,0-3.23,2.23-7.03,7.17-7.03,3.88,0,5.55,2.26,5.55,5.01,0,.7-.07,1.25-.3,2h-8.93ZM237.19,233.75s0-.15,0-.24c0-1.23-.77-2.03-2.34-2.03-1.67,0-2.62.96-2.98,2.27h5.32Z"/>
</svg>